<?xml version="1.0" ?><svg enable-background="new 0 0 512 512" id="Layer_1" version="1.1" viewBox="0 0 512 512" xml:space="preserve" xmlns="http://www.w3.org/2000/svg" xmlns:xlink="http://www.w3.org/1999/xlink"><polygon fill="#6AC3E9" points="218.8,345.9 166.1,293.2 166.1,218.8 218.8,166.1 293.2,166.1 345.9,218.8 345.9,293.2 293.2,345.9   "/><linearGradient gradientUnits="userSpaceOnUse" id="SVGID_1_" x1="304.2207" x2="207.7793" y1="339.5207" y2="172.4793"><stop offset="0" style="stop-color:#FFFFFF;stop-opacity:0"/><stop offset="1" style="stop-color:#FFFFFF;stop-opacity:0.5"/></linearGradient><polygon fill="url(#SVGID_1_)" points="218.8,345.9 166.1,293.2 166.1,218.8 218.8,166.1 293.2,166.1 345.9,218.8 345.9,293.2   293.2,345.9 "/><polygon fill="#C3EDFF" points="179.9,72.3 218.8,166.1 166.1,218.8   72.3,179.9 " stroke="#FFFFFF" stroke-miterlimit="10" stroke-width="10"/><polygon fill="#19DEF9" points="72.3,179.9 166.1,218.8 166.1,293.2   72.3,332.1 " stroke="#FFFFFF" stroke-miterlimit="10" stroke-width="10"/><polygon fill="#C3EDFF" points="72.3,332.1 166.1,293.2 218.8,345.9   179.9,439.7 " stroke="#FFFFFF" stroke-miterlimit="10" stroke-width="10"/><polygon fill="#0A3D6A" points="179.9,439.7 218.8,345.9 293.2,345.9   332.1,439.7 " stroke="#FFFFFF" stroke-miterlimit="10" stroke-width="10"/><polygon fill="#0A3D6A" points="332.1,439.7 293.2,345.9 345.9,293.2   439.7,332.1 " stroke="#FFFFFF" stroke-miterlimit="10" stroke-width="10"/><polygon fill="#256189" points="439.7,332.1 345.9,293.2 345.9,218.8   439.7,179.9 " stroke="#FFFFFF" stroke-miterlimit="10" stroke-width="10"/><polygon fill="#2A7BB3" points="439.7,179.9 345.9,218.8 293.2,166.1   332.1,72.3 " stroke="#FFFFFF" stroke-miterlimit="10" stroke-width="10"/><polygon fill="#19DEF9" points="332.1,72.3 293.2,166.1 218.8,166.1   179.9,72.3 " stroke="#FFFFFF" stroke-miterlimit="10" stroke-width="10"/><linearGradient gradientUnits="userSpaceOnUse" id="SVGID_2_" x1="256" x2="256" y1="166.1309" y2="72.3333"><stop offset="0" style="stop-color:#FFFFFF;stop-opacity:0"/><stop offset="1" style="stop-color:#FFFFFF;stop-opacity:0.5"/></linearGradient><polygon fill="url(#SVGID_2_)" points="332.1,72.3 293.2,166.1 218.8,166.1 179.9,72.3 "/><linearGradient gradientTransform="matrix(0.7071 -0.7071 0.7071 0.7071 -106.0387 256)" gradientUnits="userSpaceOnUse" id="SVGID_3_" x1="256" x2="256" y1="166.1309" y2="72.3333"><stop offset="0" style="stop-color:#FFFFFF;stop-opacity:0"/><stop offset="1" style="stop-color:#FFFFFF;stop-opacity:0.5"/></linearGradient><polygon fill="url(#SVGID_3_)" points="179.9,72.3 218.8,166.1 166.1,218.8 72.3,179.9 "/><linearGradient gradientTransform="matrix(4.489700e-11 -1 1 4.489700e-11 0 512)" gradientUnits="userSpaceOnUse" id="SVGID_4_" x1="256" x2="256" y1="166.131" y2="72.3333"><stop offset="0" style="stop-color:#FFFFFF;stop-opacity:0"/><stop offset="1" style="stop-color:#FFFFFF;stop-opacity:0.5"/></linearGradient><polygon fill="url(#SVGID_4_)" points="72.3,179.9 166.1,218.8 166.1,293.2 72.3,332.1 "/><linearGradient gradientTransform="matrix(-0.7071 -0.7071 0.7071 -0.7071 256 618.0387)" gradientUnits="userSpaceOnUse" id="SVGID_5_" x1="256" x2="256" y1="166.1309" y2="72.3333"><stop offset="0" style="stop-color:#FFFFFF;stop-opacity:0"/><stop offset="1" style="stop-color:#FFFFFF;stop-opacity:0.5"/></linearGradient><polygon fill="url(#SVGID_5_)" points="72.3,332.1 166.1,293.2 218.8,345.9 179.9,439.7 "/><linearGradient gradientTransform="matrix(-1 0 0 -1 512 512)" gradientUnits="userSpaceOnUse" id="SVGID_6_" x1="256" x2="256" y1="166.131" y2="72.3333"><stop offset="0" style="stop-color:#FFFFFF;stop-opacity:0"/><stop offset="1" style="stop-color:#FFFFFF;stop-opacity:0.5"/></linearGradient><polygon fill="url(#SVGID_6_)" points="179.9,439.7 218.8,345.9 293.2,345.9 332.1,439.7 "/><linearGradient gradientTransform="matrix(-0.7071 0.7071 -0.7071 -0.7071 618.0387 256)" gradientUnits="userSpaceOnUse" id="SVGID_7_" x1="256" x2="256" y1="166.131" y2="72.3333"><stop offset="0" style="stop-color:#FFFFFF;stop-opacity:0"/><stop offset="1" style="stop-color:#FFFFFF;stop-opacity:0.5"/></linearGradient><polygon fill="url(#SVGID_7_)" points="332.1,439.7 293.2,345.9 345.9,293.2 439.7,332.1 "/><linearGradient gradientTransform="matrix(-4.489700e-11 1 -1 -4.489700e-11 512 0)" gradientUnits="userSpaceOnUse" id="SVGID_8_" x1="256" x2="256" y1="166.131" y2="72.3333"><stop offset="0" style="stop-color:#FFFFFF;stop-opacity:0"/><stop offset="1" style="stop-color:#FFFFFF;stop-opacity:0.5"/></linearGradient><polygon fill="url(#SVGID_8_)" points="439.7,332.1 345.9,293.2 345.9,218.8 439.7,179.9 "/><linearGradient gradientTransform="matrix(0.7071 0.7071 -0.7071 0.7071 256 -106.0387)" gradientUnits="userSpaceOnUse" id="SVGID_9_" x1="256" x2="256" y1="166.131" y2="72.3333"><stop offset="0" style="stop-color:#FFFFFF;stop-opacity:0"/><stop offset="1" style="stop-color:#FFFFFF;stop-opacity:0.5"/></linearGradient><polygon fill="url(#SVGID_9_)" points="439.7,179.9 345.9,218.8 293.2,166.1 332.1,72.3 "/></svg>